# xmcd
#
# Track frame offsets: 
#        150
#        16122
#        27640
#        39832
#        53667
#        66657
#        79587
#        93020
#        107077
#        120954
#        134762
#        147427
#        159930
#        170825
#        185377
#        198317
#        211534
#        226532
#        241112
#        252184
#        266907
#        282050
#        295687
#        310240
#        322037
#        336345
#
# Disc length: 4632 seconds
#
# Revision: 1
# Processed by: cddbd v1.5.2PL0 Copyright (c) Steve Scherf et al.
# Submitted via: ExactAudioCopyFreeDBPlugin 1.0
#
DISCID=6812161a
DTITLE=Vaughan (Sarah) - The Divine One
DYEAR=2002
DGENRE=Jazz
TTITLE0=Lover Man, Oh Where Can You Be?
TTITLE1=Interlude (A Night In Tunisia)
TTITLE2=Mean To Me
TTITLE3=You Go To My Head
TTITLE4=If You Could See Me Now
TTITLE5=Everything I Have Is Yours
TTITLE6=Dont' Worry 'Bout Me
TTITLE7=Time After Time
TTITLE8=September Song
TTITLE9=Tenderly
TTITLE10=Sometimes I Feel Like A Motherless Child
TTITLE11=The Man I Love
TTITLE12=I Gonna Sit Right Down And Write Myself A Letter
TTITLE13=It's Magic
TTITLE14=What A Difference A Day Made
TTITLE15=Nature Boy
TTITLE16=Black Coffee
TTITLE17=Body And Soul
TTITLE18=I Cried For You
TTITLE19=Summertime
TTITLE20=The Nearness Of You
TTITLE21=Ain't Misbehavin'
TTITLE22=It Might As Well Be Spring
TTITLE23=Nice Work If You Can Get It
TTITLE24=East Of The Sun
TTITLE25=Perdido
EXTD=YEAR: 2002
EXTT0=
EXTT1=
EXTT2=
EXTT3=
EXTT4=
EXTT5=
EXTT6=
EXTT7=
EXTT8=
EXTT9=
EXTT10=
EXTT11=
EXTT12=
EXTT13=
EXTT14=
EXTT15=
EXTT16=
EXTT17=
EXTT18=
EXTT19=
EXTT20=
EXTT21=
EXTT22=
EXTT23=
EXTT24=
EXTT25=
PLAYORDER=
